{
	"asset" : {
		"generator" : "FME 2022.2.0.0",
		"version" : "2.0"
	},
	"materials" : [
		{
			"name" : "default_material",
			"pbrMetallicRoughness" : {
				"baseColorFactor" : [ 1, 1, 1, 1 ],
				"roughnessFactor" : 0.30000000000000004,
				"metallicFactor" : 0.5
			}
		}
	],
	"meshes" : [
		{
			"primitives" : [
				{
					"attributes" : {
						"POSITION" : 0,
						"COLOR_0" : 1
					},
					"material" : 0,
					"mode" : 3
				}
			]
		}
	],
	"nodes" : [
		{
			"mesh" : 0
		}
	],
	"scenes" : [
		{
			"nodes" : [ 0 ]
		}
	],
	"scene" : 0,
	"accessors" : [
		{
			"bufferView" : 0,
			"byteOffset" : 0,
			"componentType" : 5126,
			"count" : 135,
			"type" : "VEC3",
			"min" : [ 2127.423828125, 1000, 4342.02197265625 ],
			"max" : [ 4455.03662109375, 2000, 8172.740234375 ]
		},
		{
			"bufferView" : 1,
			"byteOffset" : 0,
			"componentType" : 5126,
			"count" : 135,
			"type" : "VEC3"
		}
	],
	"bufferViews" : [
		{
			"buffer" : 0,
			"byteOffset" : 0,
			"byteLength" : 1620,
			"target" : 34962
		},
		{
			"buffer" : 0,
			"byteOffset" : 1620,
			"byteLength" : 1620,
			"target" : 34962
		}
	],
	"buffers" : [
		{
			"uri" : "83_129.bin",
			"byteLength" : 3240
		}
	]
}